<?xml version="1.0" encoding="UTF-8"?>
<svg width="2125px" height="573px" viewBox="0 0 2125 573" version="1.1" xmlns="http://www.w3.org/2000/svg" xmlns:xlink="http://www.w3.org/1999/xlink">
    <title>Group 3</title>
    <g id="Page-1" stroke="none" stroke-width="1" fill="none" fill-rule="evenodd">
        <g id="Group-3" fill="#FFFFFF">
            <path d="M450.151425,378.997328 C451.168366,378.997328 451.930324,378.489356 452.439292,377.472416 L450.151425,377.472416 L450.151425,378.997328 Z M448.880499,217.558793 C448.537867,217.392457 448.371531,217.518952 448.371531,217.94027 C448.371531,218.365573 448.537867,218.575734 448.880499,218.575734 C449.218151,218.575734 449.387475,218.409398 449.387475,218.067761 C449.387475,217.730109 449.218151,217.558793 448.880499,217.558793 L448.880499,217.558793 Z M444.303769,233.575853 C443.962133,233.575853 443.794801,233.95733 443.794801,234.720284 C443.794801,235.483239 443.962133,235.86372 444.303769,235.86372 C444.979074,235.86372 445.319714,235.483239 445.319714,234.720284 C445.319714,233.95733 444.979074,233.575853 444.303769,233.575853 L444.303769,233.575853 Z M440.998962,224.932358 C440.998962,226.966239 441.251952,228.578801 441.76092,229.762078 C442.269889,230.950334 443.707151,231.541972 446.083664,231.541972 L446.083664,229.381596 C446.083664,228.452306 445.956173,227.518036 445.701191,226.584761 C445.447205,225.654475 445.106565,224.848692 444.685247,224.169404 C444.259944,223.494099 443.540815,223.152463 442.523875,223.152463 L442.015903,223.152463 C441.844586,223.152463 441.67327,223.323779 441.506934,223.660435 C441.335618,224.003068 441.166294,224.257054 440.998962,224.42339 L440.998962,224.932358 Z M435.15031,381.031209 L436.421237,381.031209 L436.421237,378.743342 L435.15031,378.743342 L435.15031,381.031209 Z M436.422233,229.000119 L436.422233,227.728197 C436.422233,226.54492 435.99693,225.781966 435.15031,225.44033 L434.134366,226.711256 L436.422233,229.000119 Z M434.134366,219.592674 C433.625398,219.592674 433.371412,220.017976 433.371412,220.864596 C433.371412,221.714205 433.625398,222.135523 434.134366,222.135523 C434.643334,222.135523 434.89732,221.714205 434.89732,220.864596 C434.89732,220.017976 434.643334,219.592674 434.134366,219.592674 L434.134366,219.592674 Z M433.116429,235.86372 L436.677215,235.86372 C436.677215,235.018095 436.334583,234.298966 435.659278,233.703344 C434.980986,233.111706 434.472018,232.646563 434.134366,232.304926 L433.625398,232.304926 L433.116429,232.304926 L433.116429,235.86372 Z M434.134366,240.186463 C432.438137,240.186463 431.591517,240.948421 431.591517,242.47433 C431.929169,242.47433 432.310646,242.518155 432.735948,242.601821 C433.157266,242.688475 433.455078,242.728316 433.625398,242.728316 C433.96305,242.728316 434.472018,242.688475 435.15031,242.601821 C435.82661,242.518155 436.251913,242.136678 436.422233,241.45739 C436.251913,240.611765 435.488958,240.186463 434.134366,240.186463 L434.134366,240.186463 Z M424.980907,248.321986 C424.131298,248.829958 423.710976,249.680563 423.710976,250.863839 L426.507811,250.863839 C426.507811,249.680563 425.998843,248.829958 424.980907,248.321986 L424.980907,248.321986 Z M421.677095,384.336016 C421.677095,384.507332 421.80359,384.717493 422.058573,384.972475 C422.312559,385.226461 422.52272,385.441602 422.694036,385.607938 L423.202008,385.607938 L423.964962,385.607938 L424.600425,384.972475 C424.855408,384.717493 424.980907,384.507332 424.980907,384.336016 L421.677095,384.336016 Z M419.388233,347.981145 C419.046596,347.643493 418.88026,347.726163 418.88026,348.235131 C418.88026,348.744099 419.046596,348.998085 419.388233,348.998085 C419.725885,348.83175 419.897201,348.616608 419.897201,348.362622 C419.897201,348.10764 419.725885,347.981145 419.388233,347.981145 L419.388233,347.981145 Z M412.270646,345.692282 L413.541573,345.692282 L413.541573,344.421356 L412.270646,344.421356 L412.270646,345.692282 Z M403.117187,247.050064 C402.609215,247.050064 402.355229,247.431541 402.355229,248.194495 C402.355229,248.956453 402.609215,249.33793 403.117187,249.33793 C403.793487,249.33793 404.135123,248.956453 404.135123,248.194495 C404.135123,247.431541 403.793487,247.050064 403.117187,247.050064 L403.117187,247.050064 Z M402.101243,246.288105 C402.609215,246.288105 402.863201,246.629742 402.863201,247.30405 C402.863201,247.984334 402.609215,248.321986 402.101243,248.321986 C401.592274,248.321986 401.338288,247.984334 401.338288,247.30405 C401.338288,246.629742 401.592274,246.288105 402.101243,246.288105 L402.101243,246.288105 Z M401.083306,251.626793 L402.101243,251.626793 L402.101243,250.863839 L401.083306,251.626793 Z M401.083306,274.762435 L401.083306,273.490513 L400.067362,273.490513 L401.083306,274.762435 Z M400.067362,356.879622 C399.725726,356.71229 399.558394,356.879622 399.558394,357.38859 C399.558394,357.895567 399.725726,358.150549 400.067362,358.150549 C400.405014,357.642577 400.405014,357.221258 400.067362,356.879622 L400.067362,356.879622 Z M397.524513,251.626793 C397.015545,251.626793 396.761559,252.00827 396.761559,252.771225 C396.761559,253.533183 397.015545,253.91466 397.524513,253.91466 C398.033481,253.91466 398.287467,253.533183 398.287467,252.771225 C398.287467,252.00827 398.033481,251.626793 397.524513,251.626793 L397.524513,251.626793 Z M395.236646,338.574696 L396.507573,338.574696 L395.236646,337.557755 L395.236646,338.574696 Z M395.236646,262.050183 L396.506577,262.050183 L396.506577,259.762316 L395.236646,259.762316 L395.236646,262.050183 Z M398.541453,279.083187 C398.371133,279.254503 398.199817,279.338169 398.033481,279.338169 L397.524513,279.338169 C397.182877,279.338169 396.635064,279.508489 395.872109,279.846141 C395.109155,280.188773 394.557358,280.355109 394.219706,280.355109 L398.541453,280.355109 L398.541453,279.083187 Z M388.118064,275.524394 C387.776427,275.524394 387.609095,275.949696 387.609095,276.796316 C387.609095,277.645924 387.776427,278.067243 388.118064,278.067243 C388.964684,278.067243 389.38899,277.645924 389.38899,276.796316 C389.38899,275.949696 388.964684,275.524394 388.118064,275.524394 L388.118064,275.524394 Z M387.356105,347.981145 C387.356105,347.643493 387.101123,347.473173 386.592155,347.473173 C386.084183,347.473173 385.913863,347.643493 386.084183,347.981145 C386.251515,348.151465 386.505501,348.235131 386.847137,348.235131 C387.184789,348.235131 387.356105,348.151465 387.356105,347.981145 L387.356105,347.981145 Z M386.084183,260.779256 C386.251515,260.441604 386.084183,260.270288 385.576211,260.270288 C385.067243,260.270288 384.896922,260.441604 385.067243,260.779256 C385.404895,261.796197 385.742547,261.796197 386.084183,260.779256 L386.084183,260.779256 Z M378.203642,288.490632 C377.524354,288.490632 377.186702,288.832268 377.186702,289.507573 C377.186702,290.186861 377.524354,290.524513 378.203642,290.524513 C378.711614,290.524513 378.9656,290.186861 378.9656,289.507573 C378.9656,288.832268 378.711614,288.490632 378.203642,288.490632 L378.203642,288.490632 Z M370.068119,288.490632 L371.08506,288.490632 L371.08506,287.21871 L370.068119,288.490632 Z M353.034119,329.422233 L354.05106,329.422233 L354.05106,328.405292 L353.034119,328.405292 L353.034119,329.422233 Z M350.49127,268.914779 C349.983298,268.914779 349.729312,269.29526 349.729312,270.058215 C349.729312,270.822165 349.983298,271.202646 350.49127,271.202646 C351.166575,271.202646 351.508211,270.822165 351.508211,270.058215 C351.508211,269.29526 351.166575,268.914779 350.49127,268.914779 L350.49127,268.914779 Z M349.47433,352.302893 C349.132694,352.136557 348.966358,352.302893 348.966358,352.811861 C348.966358,353.320829 349.132694,353.574815 349.47433,353.574815 C350.32095,353.065847 350.32095,352.644529 349.47433,352.302893 L349.47433,352.302893 Z M326.59367,371.879742 C326.59367,371.71241 326.466179,371.458423 326.212193,371.116787 C325.958207,370.779135 325.744062,370.607819 325.57673,370.607819 L325.067761,370.607819 L324.559789,370.607819 C324.218153,370.607819 323.796835,370.779135 323.288863,371.116787 C322.779895,371.458423 322.354592,371.71241 322.01694,371.879742 L322.01694,371.370773 C322.01694,368.490272 322.482083,366.456392 323.415358,365.269131 C324.344648,364.084859 325.744062,362.813932 327.61061,361.456352 L327.864596,360.947384 L327.61061,360.438416 L327.61061,360.184429 C327.268974,360.184429 326.931322,360.100763 326.59367,359.929447 L325.57673,359.422471 C325.405414,359.083823 325.48908,358.575851 325.830716,357.895567 C326.168368,357.221258 326.339684,356.71229 326.339684,356.370654 L321,356.370654 C321.337652,355.52503 321.548809,353.955296 321.636459,351.668425 C321.719129,349.379563 322.184272,348.151465 323.033881,347.981145 L324.559789,348.998085 L326.59367,346.455237 C325.067761,346.964205 324.178312,346.328742 323.924326,344.548847 C323.67034,342.769948 323.542849,341.625517 323.542849,341.117545 C324.897441,341.117545 325.914382,341.542847 326.59367,342.387475 C327.268974,343.23808 327.777942,344.127529 328.118583,345.057815 C328.456235,345.991089 328.881537,346.880539 329.390505,347.726163 C329.898477,348.576767 330.745097,348.998085 331.932358,348.998085 L332.186344,348.998085 C332.186344,348.322781 332.27001,347.179346 332.441326,345.566783 C332.607662,343.957209 332.778978,342.26098 332.949298,340.481085 C333.11663,338.702187 333.243125,336.966117 333.330775,335.269889 C333.414441,333.576648 333.458266,332.389388 333.458266,331.710099 L333.458266,329.168247 L333.458266,327.134366 C333.28695,326.287746 333.11663,325.060644 332.949298,323.448082 C332.778978,321.838507 332.567821,320.186103 332.313835,318.489875 C332.059849,316.79763 331.845704,315.272718 331.678372,313.914141 C331.507056,312.559549 331.336736,311.712928 331.169404,311.371292 C331.169404,311.034636 330.871592,310.227857 330.279954,308.95693 C329.684332,307.685008 329.219189,306.966875 328.881537,306.795559 L328.881537,306.032604 L328.881537,305.523636 C329.219189,304.849328 329.644491,303.489755 330.152463,301.455875 C330.661431,299.421994 330.999083,298.068398 331.169404,297.388113 C332.186344,297.72975 332.822803,297.643095 333.076789,297.135123 C333.330775,296.626155 333.497111,295.990692 333.584761,295.227738 C333.668427,294.464783 333.839744,293.789479 334.09373,293.193857 C334.347716,292.602219 335.066845,292.304408 336.254105,292.304408 C336.254105,290.440847 335.785974,288.872109 334.856684,287.600187 C333.922414,286.32926 333.458266,284.422871 333.458266,281.880022 C333.458266,281.034398 333.497111,280.315268 333.584761,279.719646 C333.668427,279.127012 334.387557,279.000517 335.746133,279.338169 C333.878588,278.492545 332.480171,276.756475 331.550881,274.125976 C330.617606,271.500457 330.152463,269.255419 330.152463,267.388871 L330.152463,266.626913 C330.152463,266.459581 330.192304,265.824117 330.279954,264.720523 C330.36362,263.61892 330.490115,262.51931 330.661431,261.41472 C330.828763,260.314113 330.955258,259.253348 331.042909,258.236408 C331.126575,257.219467 331.169404,256.545159 331.169404,256.202527 L331.169404,255.948541 C331.169404,252.730388 330.788922,249.553072 330.025968,246.415596 C329.263014,243.281109 328.881537,240.019131 328.881537,236.626674 L328.881537,231.287986 C329.219189,230.271046 329.938318,228.872628 331.042909,227.092734 C332.143515,225.313835 332.949298,224.42339 333.458266,224.42339 L334.729193,224.42339 C334.729193,225.273994 334.939354,226.671416 335.364656,228.618642 C335.785974,230.568857 336.675423,231.541972 338.034,231.541972 C338.709304,231.541972 339.178431,231.287986 339.432417,230.779018 C339.686404,230.271046 339.853736,229.762078 339.941386,229.254105 C340.024056,228.745137 340.151547,228.237165 340.321867,227.728197 C340.489199,227.220225 340.914501,226.966239 341.593789,226.966239 L341.593789,231.795958 C341.931441,231.795958 342.483239,231.669463 343.246193,231.415477 C344.009147,231.160495 344.55696,231.120654 344.898596,231.287986 C346.590841,232.13859 347.695431,234.04498 348.203404,237.008151 C348.712372,239.975306 349.093849,243.153618 349.347835,246.542091 C349.601821,249.934549 349.895648,253.06804 350.237284,255.948541 C350.574936,258.83203 351.508211,260.441604 353.034119,260.779256 L353.034119,278.067243 C353.709423,278.746531 354.471382,279.889966 355.321986,281.498545 C356.168606,283.111107 357.101881,283.913903 358.118821,283.913903 C358.964445,283.913903 359.898716,283.40593 360.915656,282.38899 C361.932596,281.37205 362.905712,280.227618 363.838986,278.957688 C364.768276,277.685765 365.531231,276.374998 366.126853,275.016421 C366.718491,273.661829 367.017298,272.644889 367.017298,271.9656 C367.862922,271.9656 369.051179,272.601064 370.576091,273.87199 C372.102,275.142917 372.863958,276.033362 372.863958,276.541334 C371.339046,276.541334 370.4486,276.796316 370.194614,277.304288 C369.940628,277.81226 369.813137,278.662865 369.813137,279.846141 C369.980469,280.017457 370.150789,280.101123 370.322105,280.101123 C370.488441,280.271443 370.742427,280.355109 371.08506,280.355109 C371.251396,280.355109 371.676698,280.017457 372.355986,279.338169 C372.693638,279.000517 373.03129,278.575215 373.372926,278.067243 C373.710579,278.067243 374.302217,278.44872 375.152821,279.210678 C375.998445,279.973632 376.590083,280.355109 376.93172,280.355109 L378.203642,280.355109 L378.203642,277.050302 L372.609972,271.202646 L373.372926,270.185706 C373.880899,270.527342 375.02533,271.2893 376.804229,272.473573 C378.584123,273.661829 379.812221,274.424783 380.491509,274.762435 L380.745495,274.762435 C380.911831,274.762435 381.083147,274.678769 381.254463,274.507453 C381.420799,274.507453 381.592115,274.424783 381.762435,274.253467 C381.762435,273.744499 381.674785,272.982541 381.508449,271.9656 C381.337133,270.94866 381.762435,270.357022 382.779376,270.185706 C382.945712,270.185706 383.45468,270.357022 384.305284,270.694674 C385.150909,271.035314 385.742547,271.202646 386.084183,271.202646 C386.251515,271.035314 386.505501,270.694674 386.847137,270.185706 C387.184789,269.676738 387.356105,269.255419 387.356105,268.914779 C387.356105,268.748443 387.184789,268.533302 386.847137,268.279316 C386.505501,268.024334 386.251515,267.897839 386.084183,267.897839 C385.742547,267.730507 385.194734,267.476521 384.431779,267.134885 C383.668825,266.797233 383.117028,266.626913 382.779376,266.626913 L382.779376,257.473453 C382.779376,257.307117 383.962652,257.091976 386.339165,256.838986 C388.709702,256.585 390.573262,256.373843 391.931839,256.202527 L396.507573,256.202527 C395.657964,255.185586 394.937839,254.511278 394.347197,254.168646 C393.750579,253.830994 393.202765,253.533183 392.693797,253.279197 C392.185825,253.024215 391.760523,252.603893 391.422871,252.00827 C391.081235,251.415636 390.827249,250.188535 390.659917,248.321986 L391.168885,248.321986 C391.844189,248.321986 392.567302,248.663622 393.32926,249.33793 C394.092215,250.018215 394.727678,250.526187 395.236646,250.863839 L395.744618,250.863839 L396.507573,250.863839 L397.524513,249.846899 C398.033481,249.33793 398.581294,248.829958 399.176917,248.321986 C399.768555,247.813018 400.361189,247.347875 400.956811,246.922573 C401.548449,246.50225 401.929926,246.288105 402.101243,246.288105 C402.438895,246.120773 403.200853,246.076948 404.389109,246.160614 C405.572386,246.248264 406.33534,246.288105 406.676976,246.288105 C407.35228,245.950453 407.693917,245.525151 407.693917,245.016183 C407.693917,244.170559 407.224789,242.728316 406.295499,240.694435 C405.362225,238.660555 404.726761,237.389628 404.389109,236.88066 C404.726761,236.205356 405.444895,235.609734 406.550481,235.101761 C407.650091,234.592793 408.878189,234.128646 410.236765,233.703344 C411.590362,233.282026 412.94595,232.94039 414.304527,232.686404 C415.658123,232.432417 416.759726,232.304926 417.609334,232.304926 C418.626274,232.304926 419.555565,232.348751 420.406169,232.432417 C421.251793,232.520068 421.677095,233.238201 421.677095,234.592793 C421.677095,235.443398 421.461954,236.118702 421.040636,236.626674 C420.61633,237.135642 420.406169,237.81493 420.406169,238.660555 L420.406169,239.169523 C422.268734,238.322903 424.092453,236.670499 425.871352,234.211316 C427.651247,231.756117 428.541692,229.425421 428.541692,227.220225 C428.541692,225.865632 428.454042,224.804867 428.28671,224.041913 C428.11639,223.279954 427.778738,222.223173 427.269769,220.864596 C428.28671,220.697264 428.96301,220.443278 429.30365,220.101642 C429.641302,219.76399 429.895288,219.382513 430.066604,218.957211 C430.23294,218.535893 430.487922,218.155412 430.829559,217.813775 C431.166215,217.476123 431.846499,217.304807 432.863439,217.304807 C434.89732,217.304807 435.953105,217.602618 436.040755,218.195252 C436.124421,218.790875 436.168247,220.017976 436.168247,221.881537 C436.505899,222.051857 436.759885,222.135523 436.931201,222.135523 L437.693159,222.135523 C437.860491,221.969187 438.202127,221.543885 438.711095,220.864596 C439.218072,220.189292 439.55672,219.76399 439.72704,219.592674 C440.236008,219.592674 441.251952,219.720165 442.778857,219.974151 C444.303769,220.229133 445.234056,220.355628 445.574696,220.355628 L445.574696,214 L459.811861,214 C459.811861,217.050821 459.640545,218.918366 459.302893,219.592674 C458.962252,220.272958 458.453284,220.653439 457.77798,220.737105 C457.098692,220.824755 456.335738,220.991091 455.489117,221.246074 C454.639509,221.50006 453.622569,222.560825 452.439292,224.42339 L455.744099,227.728197 C455.402463,228.578801 454.473173,229.126614 452.94826,229.381596 C451.421356,229.635583 450.489078,229.849728 450.151425,230.01706 C450.489078,232.558913 450.063775,234.510123 448.880499,235.86372 C447.692243,237.222296 446.421316,238.366728 445.066724,239.296018 C443.707151,240.230288 442.523875,241.075913 441.506934,241.838867 C440.489994,242.601821 440.319674,243.66159 440.998962,245.016183 C440.489994,245.016183 439.345563,245.187499 437.565668,245.525151 C435.786769,245.866787 434.643334,246.120773 434.134366,246.288105 C433.455078,246.288105 432.775789,246.882732 432.100485,248.067004 C431.421197,249.25526 430.741909,250.570012 430.066604,252.00827 C429.387316,253.449517 428.708028,254.805105 428.032724,256.076032 C427.353435,257.346958 426.674147,258.153738 425.998843,258.49139 C421.589445,261.374879 418.88026,263.408759 417.86332,264.593032 C416.84638,265.780292 416.421078,266.841058 416.592394,267.770348 C416.759726,268.704618 416.84638,269.676738 416.84638,270.694674 C416.84638,271.710618 415.741789,273.323181 413.541573,275.524394 C413.032604,276.033362 412.270646,276.502489 411.25271,276.923807 C410.236765,277.347117 409.092334,277.81226 407.821408,278.321229 C406.550481,278.830197 405.278559,279.338169 404.007632,279.846141 C402.736706,280.355109 401.759606,280.864078 401.083306,281.37205 C398.708785,283.238598 396.845225,285.821288 395.490632,289.126095 C394.132056,292.430903 392.523477,295.187897 390.659917,297.388113 C389.642976,298.57637 388.411891,299.637135 386.973632,300.566425 C385.532386,301.4997 384.177793,302.517636 382.905871,303.617247 C381.634944,304.721837 380.53135,305.948938 379.601064,307.304527 C378.667789,308.662107 378.203642,310.354352 378.203642,312.388233 C378.203642,313.405173 378.584123,314.128286 379.347078,314.549604 C380.110032,314.974907 380.999481,315.312559 382.016421,315.565549 C383.033362,315.820531 384.050302,316.034676 385.067243,316.202008 C386.084183,316.372328 386.847137,316.62731 387.356105,316.964962 L388.118064,318.998843 C389.135004,320.357419 390.445771,321.28671 392.058334,321.794682 C393.666913,322.30365 395.148996,322.982938 396.507573,323.828563 C397.524513,324.507851 398.073322,325.481962 398.159976,326.752889 C398.243642,328.023815 398.199817,329.339563 398.033481,330.693159 C397.862165,332.051736 397.734674,333.450153 397.652004,334.888412 C397.564354,336.329658 397.862165,337.557755 398.541453,338.574696 C398.708785,338.745016 399.133091,338.956173 399.81238,339.210159 C400.48868,339.465141 400.912986,339.67829 401.083306,339.845622 C401.083306,340.187258 400.912986,340.822722 400.575334,341.752012 C400.233698,342.686282 400.067362,343.321746 400.067362,343.659398 C402.609215,343.659398 404.301459,343.27792 405.151068,342.514966 C405.997688,341.752012 406.42299,340.099608 406.42299,337.557755 L403.117187,337.557755 C403.454839,336.711135 404.174964,336.119497 405.278559,335.777861 C406.379165,335.441205 407.184948,335.269889 407.693917,335.269889 C407.861249,335.269889 408.075394,335.39738 408.32938,335.65037 C408.584362,335.904356 408.794523,336.119497 408.964843,336.285833 C410.149115,338.153378 411.420042,339.043823 412.778618,338.956173 C414.133211,338.872507 415.575453,339.508966 417.100366,340.862563 C418.284638,341.879503 419.217913,343.067759 419.897201,344.421356 C420.572505,345.779932 421.295618,347.091696 422.058573,348.362622 C422.821527,349.634545 423.710976,350.694314 424.727917,351.540934 C425.744857,352.390543 427.182119,352.811861 429.048668,352.811861 C429.048668,354.170437 429.132334,355.608696 429.30365,357.133608 C429.469986,358.658521 429.851463,360.100763 430.448082,361.456352 C431.040716,362.813932 431.802674,363.957368 432.735948,364.887654 C433.665239,365.820928 434.89732,366.286072 436.422233,366.286072 C436.589565,366.286072 436.971042,366.246231 437.565668,366.158581 C438.158302,366.074915 438.623445,366.031089 438.965082,366.031089 C437.776825,364.677493 436.843551,363.406567 436.168247,362.21831 C435.488958,361.035034 435.15031,359.509125 435.15031,357.642577 C435.317642,357.812897 435.488958,357.895567 435.659278,357.895567 L436.168247,358.150549 L436.422233,358.150549 C436.589565,358.320869 437.098533,358.873662 437.948141,359.802952 C438.793765,360.736227 439.385404,361.28902 439.72704,361.456352 C439.894372,361.626672 440.446169,361.836833 441.379443,362.090819 C442.30973,362.344805 443.285833,362.599787 444.303769,362.853773 C445.319714,363.107759 446.293825,363.322901 447.227099,363.490233 C448.15639,363.660553 448.709183,363.830873 448.880499,363.997209 C449.218151,363.997209 449.642457,364.296016 450.151425,364.887654 C450.659398,365.484272 450.99705,365.864753 451.168366,366.031089 C451.505022,366.373722 452.097656,366.794044 452.94826,367.303012 C453.793885,367.81198 454.385523,368.15262 454.727159,368.319952 L454.727159,378.743342 C454.727159,380.101918 454.131537,381.118859 452.94826,381.795159 C451.760004,382.473451 450.405412,382.938594 448.880499,383.192581 C447.353594,383.446567 445.912348,383.617883 444.557755,383.701549 C443.200175,383.789199 442.353555,383.998364 442.015903,384.336016 C441.844586,384.507332 441.717095,384.932634 441.633429,385.607938 C441.546775,386.286231 441.463109,387.006356 441.379443,387.76931 C441.291793,388.531268 441.208127,389.294223 441.125457,390.057177 C441.038803,390.819135 440.998962,391.288262 440.998962,391.455594 C440.827646,391.797231 440.108517,392.261378 438.83759,392.853016 C437.565668,393.44565 436.759885,393.655811 436.422233,393.489475 C435.233976,392.813175 434.472018,391.625915 434.134366,389.930682 C433.79273,390.437658 433.327586,391.034276 432.735948,391.709581 C432.140326,392.387873 431.421197,392.726521 430.575573,392.726521 L430.575573,387.896801 L420.406169,387.896801 L419.897201,387.387833 L419.388233,386.878865 C419.388233,386.541213 419.217913,385.82308 418.88026,384.717493 C418.538624,383.617883 418.284638,382.727437 418.117306,382.048149 L418.117306,381.540177 L418.117306,381.031209 C418.284638,380.864873 418.538624,380.483396 418.88026,379.887773 C419.217913,379.296135 419.388233,378.914658 419.388233,378.743342 C419.046596,378.40569 418.454958,377.814052 417.609334,376.963447 C416.759726,376.117823 416.167091,375.526185 415.829439,375.184549 L415.829439,383.320072 C414.470863,382.811103 412.270646,381.500336 409.218829,379.378805 C406.169004,377.262254 403.029537,374.929567 399.81238,372.387714 C396.591239,369.845861 393.584243,367.346837 390.787408,364.887654 C387.990573,362.432455 386.084183,360.609732 385.067243,359.422471 C384.55927,358.746171 383.752491,357.812897 382.651885,356.62464 C381.54829,355.441364 380.491509,354.209282 379.474569,352.939352 C378.457628,351.668425 377.567183,350.484153 376.804229,349.379563 C376.04227,348.278956 375.660793,347.473173 375.660793,346.964205 C378.032326,346.964205 379.982541,346.499062 381.508449,345.566783 C383.033362,344.636497 383.796316,342.730107 383.796316,339.845622 C383.796316,339.508966 383.668825,339.083664 383.414839,338.574696 C383.160853,338.065728 382.945712,337.728076 382.779376,337.557755 C382.271404,337.391419 381.674785,337.475085 380.999481,337.811742 L379.982541,338.319714 L379.982541,343.659398 C379.474569,343.493062 379.049266,343.405412 378.711614,343.405412 C377.86101,343.405412 377.269372,343.321746 376.93172,343.151425 C376.7614,343.151425 376.379922,342.984093 375.787288,342.642457 C375.191666,342.304805 374.810189,342.133489 374.643853,342.133489 C373.11894,342.133489 371.886859,342.558791 370.957569,343.405412 C370.024294,344.25502 369.051179,345.017974 368.034239,345.692282 L367.271284,345.692282 L366.50833,345.692282 C366.845982,345.692282 367.183634,345.355626 367.52527,344.676338 C367.862922,344.001034 368.034239,343.493062 368.034239,343.151425 C367.691606,342.642457 366.889807,341.879503 365.617885,340.862563 C364.347954,339.845622 362.949537,338.828682 361.423628,337.811742 C359.898716,336.794801 358.412648,335.865511 356.97439,335.015903 C355.532147,334.169282 354.559032,333.74398 354.05106,333.74398 C353.709423,333.74398 353.288105,334.169282 352.780133,335.015903 C352.271165,335.865511 351.763193,336.838626 351.254225,337.938237 C350.746252,339.043823 350.32095,340.099608 349.983298,341.117545 C349.641662,342.133489 349.47433,342.730107 349.47433,342.896443 C349.47433,344.930324 350.110789,346.797869 351.381716,348.489117 C352.652642,350.185346 353.288105,352.048907 353.288105,354.082787 C353.288105,354.253107 353.24428,354.424423 353.16161,354.590759 C353.07396,354.762076 353.034119,354.933392 353.034119,355.099728 L353.034119,355.608696 C352.862803,355.949336 352.608817,356.585795 352.271165,357.515085 C351.929529,358.44836 351.763193,359.083823 351.763193,359.422471 L352.271165,360.438416 C352.608817,361.117704 352.862803,361.456352 353.034119,361.456352 C353.200455,361.796992 353.288105,362.30596 353.288105,362.981264 L353.288105,364.252191 C352.100845,364.252191 351.166575,363.322901 350.49127,361.456352 L349.47433,362.472296 C349.47433,363.322901 349.685487,363.914539 350.110789,364.252191 C350.531111,364.593827 350.956414,364.887654 351.381716,365.14164 C351.802038,365.396622 352.22734,365.650608 352.652642,365.904594 C353.07396,366.158581 353.288105,366.627708 353.288105,367.303012 C353.288105,367.474328 353.24428,367.557994 353.16161,367.557994 C353.07396,367.557994 353.034119,367.644648 353.034119,367.81198 L353.034119,368.319952 C352.862803,368.490272 352.437501,368.701429 351.763193,368.955416 C351.083905,369.209402 350.658602,369.424543 350.49127,369.591875 C350.49127,369.762195 350.32095,370.480328 349.983298,371.75225 C349.641662,373.023177 349.47433,373.829956 349.47433,374.166612 C349.47433,374.337928 349.347835,374.763231 349.093849,375.438535 C348.838867,376.117823 348.584881,376.836952 348.330895,377.599907 C348.076909,378.361865 347.821926,379.084978 347.56794,379.761278 C347.313954,380.439571 347.186463,380.864873 347.186463,381.031209 C347.016143,382.219465 347.353795,383.026245 348.203404,383.446567 C349.050024,383.871869 349.47433,384.590998 349.47433,385.607938 C349.47433,387.475483 348.878708,389.254382 347.695431,390.946626 C346.507175,392.642855 345.915537,394.672751 345.915537,397.048268 L342.61073,397.048268 L342.61073,401.624998 L331.169404,401.624998 C331.169404,402.300302 331.25307,402.680783 331.424386,402.768433 C331.590722,402.852099 331.169404,403.149911 330.152463,403.658879 C329.302855,403.487563 328.711217,402.895924 328.373565,401.878984 C328.031928,400.862044 327.820771,399.717612 327.738101,398.446686 C327.650451,397.175759 327.566785,395.904833 327.483119,394.632911 C327.395469,393.361984 327.101642,392.305203 326.59367,391.455594 L326.59367,371.879742 Z" id="Fill-3"></path>
            <path d="M215.986328,404 C237.275391,404 254.243164,398.018555 266.889648,386.055664 C279.536133,374.092773 285.859375,359.46875 285.859375,342.183594 C285.859375,333.6875 284.174805,325.801758 280.805664,318.526367 C277.436523,311.250977 272.724609,305.049805 266.669922,299.922852 C260.615234,294.795898 251.972656,290.328125 240.742188,286.519531 C249.824219,281.636719 256.708984,275.264648 261.396484,267.40332 C266.083984,259.541992 268.427734,250.826172 268.427734,241.255859 C268.427734,231.001953 265.766602,221.675781 260.444336,213.277344 C255.12207,204.878906 247.871094,198.65332 238.691406,194.600586 C229.511719,190.547852 216.376953,188.521484 199.287109,188.521484 L199.287109,188.521484 L156.806641,188.521484 L156.806641,404 L215.986328,404 Z M190.205078,278.609375 L177.900391,278.609375 L177.900391,209.615234 L202.802734,209.615234 C217.841797,209.615234 228.803711,212.422852 235.688477,218.038086 C242.573242,223.65332 246.015625,231.392578 246.015625,241.255859 C246.015625,248.580078 243.964844,255.245117 239.863281,261.250977 C235.761719,267.256836 230.195312,271.651367 223.164062,274.43457 C216.132812,277.217773 205.146484,278.609375 190.205078,278.609375 L190.205078,278.609375 Z M204.560547,382.90625 L177.900391,382.90625 L177.900391,300.289062 L190.893087,300.289062 C208.613501,300.316314 221.079477,301.195012 228.291016,302.925781 C239.228516,305.5625 247.822266,310.445312 254.072266,317.574219 C260.322266,324.703125 263.447266,333.052734 263.447266,342.623047 C263.447266,350.240234 261.225586,357.320312 256.782227,363.863281 C252.338867,370.40625 246.455078,375.21582 239.130859,378.291992 C231.806641,381.368164 220.283203,382.90625 204.560547,382.90625 L204.560547,382.90625 Z M517.304688,404 L517.304688,303.804688 L529.609375,303.804688 L606.953125,404 L633.613281,404 L556.123047,303.804688 C574.189453,303.707031 588.349609,301.387695 598.603516,296.84668 C608.857422,292.305664 616.743164,285.591797 622.260742,276.705078 C627.77832,267.818359 630.537109,257.515625 630.537109,245.796875 C630.537109,231.734375 626.533203,219.893555 618.525391,210.274414 C610.517578,200.655273 600.117188,194.380859 587.324219,191.451172 C578.828125,189.498047 562.617188,188.521484 538.691406,188.521484 L495.771484,188.521484 L495.771484,404 L517.304688,404 Z M554.365234,283.150391 L517.304688,282.857422 L517.304688,209.615234 L555.244141,209.615234 C569.990234,209.615234 580.537109,210.884766 586.884766,213.423828 C593.232422,215.962891 598.359375,220.186523 602.265625,226.094727 C606.171875,232.00293 608.125,238.570312 608.125,245.796875 C608.125,253.21875 606.196289,259.932617 602.338867,265.938477 C598.481445,271.944336 593.110352,276.314453 586.225586,279.048828 C579.34082,281.783203 568.720703,283.150391 554.365234,283.150391 L554.365234,283.150391 Z M844.233398,408.516602 C860.753581,408.516602 875.707194,405.403809 889.094238,399.178223 C902.481283,392.952637 913.650716,384.143229 922.602539,372.75 L922.602539,372.75 L908.442383,362.007812 C891.515299,381.701823 870.478516,391.548828 845.332031,391.548828 C822.464193,391.548828 803.522949,384.224609 788.508301,369.576172 C773.493652,354.927734 765.986328,336.657878 765.986328,314.766602 C765.986328,300.280924 769.343262,287.239746 776.057129,275.643066 C782.770996,264.046387 792.231445,254.809733 804.438477,247.933105 C816.645508,241.056478 829.910482,237.618164 844.233398,237.618164 C857.335612,237.618164 869.359538,240.242676 880.305176,245.491699 C891.250814,250.740723 900.629883,258.451497 908.442383,268.624023 L908.442383,268.624023 L922.602539,257.759766 C913.976237,245.796875 902.908529,236.499186 889.399414,229.866699 C875.890299,223.234212 860.753581,219.917969 843.989258,219.917969 C816.238607,219.917969 793.146973,228.890137 774.714355,246.834473 C756.281738,264.778809 747.06543,286.89388 747.06543,313.179688 C747.06543,338.163411 754.674479,359.485026 769.892578,377.144531 C788.040365,398.059245 812.820638,408.516602 844.233398,408.516602 Z M1045.64941,408.516602 C1071.93522,408.516602 1094.21305,399.361328 1112.48291,381.050781 C1130.75277,362.740234 1139.8877,340.442057 1139.8877,314.15625 C1139.8877,287.626302 1130.73242,265.287435 1112.42188,247.139648 C1094.11133,228.991862 1071.36556,219.917969 1044.18457,219.917969 C1027.42025,219.917969 1011.83594,224.088704 997.431641,232.430176 C983.027344,240.771647 971.65446,252.307292 963.312988,267.037109 C954.971517,281.766927 950.800781,297.758138 950.800781,315.010742 C950.800781,340.889648 959.956055,362.943685 978.266602,381.172852 C996.577148,399.402018 1019.03809,408.516602 1045.64941,408.516602 Z M1045.03906,391.060547 C1024.20573,391.060547 1006.40381,383.715983 991.633301,369.026855 C976.862793,354.337728 969.477539,336.332357 969.477539,315.010742 C969.477539,300.606445 972.814128,287.544922 979.487305,275.826172 C986.160482,264.107422 995.437826,254.789388 1007.31934,247.87207 C1019.20085,240.954753 1031.77409,237.496094 1045.03906,237.496094 C1058.54818,237.496094 1071.32487,240.954753 1083.36914,247.87207 C1095.41341,254.789388 1104.75179,264.005697 1111.38428,275.520996 C1118.01676,287.036296 1121.33301,299.914714 1121.33301,314.15625 C1121.33301,328.479167 1118.01676,341.5 1111.38428,353.21875 C1104.75179,364.9375 1095.51514,374.174154 1083.67432,380.928711 C1071.8335,387.683268 1058.95508,391.060547 1045.03906,391.060547 Z M1194.5752,404 L1194.5752,268.257812 L1312.9834,404 L1317.01172,404 L1317.01172,224.43457 L1299.31152,224.43457 L1299.31152,361.885742 L1179.92676,224.43457 L1176.02051,224.43457 L1176.02051,404 L1194.5752,404 Z M1379.51172,404 L1379.51172,268.257812 L1497.91992,404 L1501.94824,404 L1501.94824,224.43457 L1484.24805,224.43457 L1484.24805,361.885742 L1364.86328,224.43457 L1360.95703,224.43457 L1360.95703,404 L1379.51172,404 Z M1648.06641,404 L1648.06641,386.299805 L1563.83789,386.299805 L1563.83789,315.865234 L1648.06641,315.865234 L1648.06641,298.287109 L1563.83789,298.287109 L1563.83789,242.134766 L1648.79883,242.134766 L1648.79883,224.43457 L1545.89355,224.43457 L1545.89355,404 L1648.06641,404 Z M1768.67188,408.516602 C1785.19206,408.516602 1800.14567,405.403809 1813.53271,399.178223 C1826.91976,392.952637 1838.08919,384.143229 1847.04102,372.75 L1847.04102,372.75 L1832.88086,362.007812 C1815.95378,381.701823 1794.91699,391.548828 1769.77051,391.548828 C1746.90267,391.548828 1727.96143,384.224609 1712.94678,369.576172 C1697.93213,354.927734 1690.4248,336.657878 1690.4248,314.766602 C1690.4248,300.280924 1693.78174,287.239746 1700.49561,275.643066 C1707.20947,264.046387 1716.66992,254.809733 1728.87695,247.933105 C1741.08398,241.056478 1754.34896,237.618164 1768.67188,237.618164 C1781.77409,237.618164 1793.79801,240.242676 1804.74365,245.491699 C1815.68929,250.740723 1825.06836,258.451497 1832.88086,268.624023 L1832.88086,268.624023 L1847.04102,257.759766 C1838.41471,245.796875 1827.34701,236.499186 1813.83789,229.866699 C1800.32878,223.234212 1785.19206,219.917969 1768.42773,219.917969 C1740.67708,219.917969 1717.58545,228.890137 1699.15283,246.834473 C1680.72021,264.778809 1671.50391,286.89388 1671.50391,313.179688 C1671.50391,338.163411 1679.11296,359.485026 1694.33105,377.144531 C1712.47884,398.059245 1737.25911,408.516602 1768.67188,408.516602 Z M1923.70117,404 L1923.70117,241.890625 L1963.74023,241.890625 L1963.74023,224.43457 L1865.22949,224.43457 L1865.22949,241.890625 L1905.39062,241.890625 L1905.39062,404 L1923.70117,404 Z" id="BRCONNECT" fill-rule="nonzero"></path>
        </g>
    </g>
</svg>